/vscmnt/brussel_pixiu_data/_data_brussel/112/vsc11236/PredSimResults/SUBJ09mtu3D/weighted-LRposFixed/expIG/worker_01.mot
version=1
nRows=10
nColumns=50
inDegrees=yes
endheader
                time	         pelvis_tilt	         pelvis_list	     pelvis_rotation	           pelvis_tx	           pelvis_ty	           pelvis_tz	       hip_flexion_r	     hip_adduction_r	      hip_rotation_r	        knee_angle_r	       ankle_angle_r	         mtp_angle_r	       hip_flexion_l	     hip_adduction_l	      hip_rotation_l	        knee_angle_l	       ankle_angle_l	         mtp_angle_l	    lumbar_extension	      lumbar_bending	     lumbar_rotation	 ercspn_r/activation	 intobl_r/activation	 extobl_r/activation	    abd_r/activation	    add_r/activation	hamstrings_r/activation	bifemsh_r/activation	glut_max_r/activation	iliopsoas_r/activation	rect_fem_r/activation	  vasti_r/activation	gastroc_r/activation	 soleus_r/activation	tib_ant_r/activation	 ercspn_l/activation	 intobl_l/activation	 extobl_l/activation	    abd_l/activation	    add_l/activation	hamstrings_l/activation	bifemsh_l/activation	glut_max_l/activation	iliopsoas_l/activation	rect_fem_l/activation	  vasti_l/activation	gastroc_l/activation	 soleus_l/activation	tib_ant_l/activation	
          0.00000000	         -7.68476593	         -4.76308024	          7.25224262	          0.00000000	          0.98162739	         -0.01128764	         31.20914736	          1.75357640	         -4.82985622	         -2.07005812	          6.51057759	          0.21294961	        -10.70370861	         -5.07702551	          4.72101082	         -7.23791749	         10.38353333	         27.96417211	         -0.47336909	          3.21663221	         -3.72887275	          0.09307142	          0.13557882	          0.03238302	          0.02051554	          0.07181021	          0.11640617	          0.23227348	          0.01053273	          0.10564588	          0.00999999	          0.00999999	          0.01191512	          0.00999999	          0.26725425	          0.04377655	          0.00999999	          0.00999999	          0.05178486	          0.00999999	          0.01868826	          0.12559562	          0.03841445	          0.44356420	          0.01211986	          0.01209267	          0.31485197	          0.27291574	          0.01468920	
          0.01271944	         -7.77076941	         -4.69759874	          7.26870259	          0.01829616	          0.97959807	         -0.01108079	         31.20094626	          1.84086984	         -4.70184571	         -3.57711833	          6.06865005	          0.21629803	        -10.84724176	         -5.03554056	          4.37407906	         -8.77886417	          9.64829231	         30.00786352	         -0.17393580	          3.52658875	         -3.84758505	          0.07679219	          0.11186458	          0.02671887	          0.01692714	          0.09373343	          0.09992214	          0.19164627	          0.07367747	          0.08716724	          0.00999999	          0.00999999	          0.02254237	          0.01581245	          0.28011718	          0.08063002	          0.00999999	          0.00999999	          0.04272711	          0.02608048	          0.02033018	          0.10362755	          0.03169533	          0.43708887	          0.01000000	          0.01893099	          0.28750509	          0.25416242	          0.01211990	
          0.02543888	         -7.83655606	         -4.63077721	          7.23634738	          0.03697205	          0.97782157	         -0.01079873	         31.02696703	          1.92047209	         -4.57078141	         -5.03991233	          5.58802810	          0.20303921	        -10.86064847	         -4.98457739	          3.99774016	        -10.61733908	          8.74248500	         32.09112950	          0.14373027	          3.84624015	         -3.93633593	          0.06584698	          0.09229822	          0.02204544	          0.07652643	          0.07929404	          0.08721957	          0.15812521	          0.11544144	          0.07192072	          0.00999999	          0.00999999	          0.01859946	          0.01304668	          0.33309592	          0.07842612	          0.00999999	          0.00999999	          0.03525367	          0.02151871	          0.01677423	          0.08550194	          0.02615147	          0.41949556	          0.01000019	          0.01780317	          0.24111851	          0.21836783	          0.00999999	
          0.03815832	         -7.88524257	         -4.55829696	          7.15629902	          0.05567587	          0.97655754	         -0.01042733	         30.73391226	          2.01193048	         -4.46009650	         -6.28087867	          4.93266472	          0.17972726	        -10.62713160	         -4.91493523	          3.60707284	        -12.90991656	          7.64559384	         34.13077512	          0.44251673	          4.16915247	         -3.99070648	          0.06916457	          0.07615423	          0.01818945	          0.13141878	          0.10472232	          0.07261385	          0.13046735	          0.16389750	          0.05934099	          0.00999999	          0.00999999	          0.01534621	          0.01076467	          0.36643856	          0.11734078	          0.00999999	          0.00999999	          0.02908741	          0.03056087	          0.01679369	          0.07054670	          0.02157728	          0.39828313	          0.01000003	          0.01468920	          0.19894420	          0.18017287	          0.00999999	
          0.05087776	         -7.91592750	         -4.48582883	          7.03263294	          0.07415325	          0.97597129	         -0.00997600	         30.40488696	          2.12193954	         -4.35188475	         -7.49849633	          4.44460655	          0.14951388	        -10.06211840	         -4.83110189	          3.20843090	        -15.76983497	          6.35540650	         35.95516365	          0.70033367	          4.50126905	         -4.00962337	          0.06914024	          0.06283401	          0.01500791	          0.16257928	          0.11957259	          0.06026820	          0.10764716	          0.19018221	          0.04896159	          0.00999999	          0.02969761	          0.01266199	          0.00999999	          0.39135086	          0.14829601	          0.00999999	          0.00999999	          0.02399970	          0.04959107	          0.01731091	          0.05820730	          0.01780318	          0.35899162	          0.00999999	          0.01211989	          0.16414665	          0.14865863	          0.00999999	
          0.06359719	         -7.92793589	         -4.40642262	          6.86685015	          0.09226930	          0.97613194	         -0.00946480	         30.04469814	          2.24070324	         -4.23805201	         -8.69762465	          4.16916814	          0.12596060	         -9.13488763	         -4.72922895	          2.79953798	        -19.22308258	          4.90531095	         37.22986571	          0.90764089	          4.83388559	         -3.99125256	          0.06189285	          0.05184364	          0.01238286	          0.16936586	          0.09865883	          0.05320836	          0.08881848	          0.19316121	          0.04039766	          0.00999999	          0.09188973	          0.01044727	          0.00999999	          0.39537847	          0.16034748	          0.00999999	          0.00999999	          0.01980188	          0.06494272	          0.01468920	          0.04802620	          0.01468920	          0.29620000	          0.00999999	          0.00999999	          0.13543557	          0.12265658	          0.00999999	
          0.07631663	         -7.92301601	         -4.30685257	          6.66141913	          0.10995411	          0.97709519	         -0.00893241	         29.59625020	          2.35521093	         -4.10377220	         -9.75495689	          4.05448340	          0.10478358	         -7.85652037	         -4.60318098	          2.37577553	        -23.21952745	          3.34382758	         37.54272580	          1.06083027	          5.15289202	         -3.93562416	          0.05106710	          0.04277561	          0.01021696	          0.16493672	          0.08140231	          0.04905411	          0.07328314	          0.18282185	          0.03333166	          0.00999999	          0.15006877	          0.01000001	          0.01000002	          0.39050719	          0.17297007	          0.00999999	          0.00999999	          0.01633831	          0.07668204	          0.01211990	          0.05315255	          0.01211990	          0.24439133	          0.00999999	          0.00999999	          0.11174638	          0.10120258	          0.00999999	
          0.08903607	         -7.90379878	         -4.17476888	          6.41537626	          0.12721220	          0.97885677	         -0.00841091	         28.99092890	          2.45582377	         -3.93208628	        -10.54305271	          4.07936946	          0.09092353	         -6.27657679	         -4.44703968	          1.94940740	        -27.60678436	          1.53874474	         36.86602148	          1.16415339	          5.44447580	         -3.84097639	          0.04213490	          0.03529368	          0.00999999	          0.15671661	          0.06716414	          0.04618945	          0.06046510	          0.16389861	          0.02750158	          0.00999999	          0.18434152	          0.00999999	          0.00999999	          0.37755260	          0.17170496	          0.00999999	          0.00999999	          0.01348056	          0.09176837	          0.01000000	          0.06948767	          0.00999999	          0.20164457	          0.00999999	          0.00999999	          0.09220070	          0.08350112	          0.02593155	
          0.10175551	         -7.87276205	         -3.99822890	          6.12851987	          0.14405182	          0.98128758	         -0.00792939	         28.20221429	          2.52929007	         -3.70282065	        -11.00593816	          4.19504306	          0.08487844	         -4.45778639	         -4.24921542	          1.54127438	        -32.23734178	         -0.40589123	         34.94144973	          1.22029973	          5.69561866	         -3.70672488	          0.03476504	          0.02912043	          0.00999999	          0.15260072	          0.05541638	          0.04323922	          0.04988908	          0.13523092	          0.02269125	          0.00999999	          0.18956772	          0.00999999	          0.00999999	          0.35994814	          0.17491385	          0.00999999	          0.03449788	          0.01112266	          0.09276415	          0.01000000	          0.05733352	          0.00999999	          0.16637469	          0.00999999	          0.00999999	          0.07607377	          0.06889585	          0.08441043	
          0.11447495	         -7.83135466	         -3.77655646	          5.80569805	          0.16045392	          0.98416235	         -0.00749602	         27.27147767	          2.56967270	         -3.39136448	        -11.20954076	          4.37881725	          0.08711665	         -2.48699870	         -4.00290873	          1.17531796	        -36.96516390	         -2.09985251	         31.43550430	          1.22808276	          5.90131227	         -3.54027201	          0.02868424	          0.02402694	          0.00999999	          0.14511229	          0.04572344	          0.03843684	          0.04116293	          0.11157753	          0.01872230	          0.00999999	          0.17783953	          0.00999999	          0.00999999	          0.34042771	          0.19229407	          0.02850338	          0.07744070	          0.00999999	          0.07653867	          0.00999999	          0.04730526	          0.00999999	          0.13727390	          0.00999999	          0.00999999	          0.06276762	          0.05684520	          0.18855699	
